<svg width="1280" height="398" viewBox="0 0 1280 398" fill="none" xmlns="http://www.w3.org/2000/svg">
<g clip-path="url(#clip0)">
<rect width="1280" height="398" fill="white"/>
<g clip-path="url(#clip1)">
<path d="M1084.29 198.187C1084.29 151.406 1046.38 113.482 999.593 113.482H565.605H558.724H512.207C485.37 113.482 459.497 124.217 440.505 143.208L364.505 218.217C345.513 237.209 319.64 247.943 292.803 247.943H221.713H214.832C167.1 247.943 128.404 286.639 128.404 334.372L136.313 386.941H173.885H222.742H229.623H439.054H445.935H675.433H682.314H953.02H959.901H1018.81H1067.99V415.572H1151.11V264.999C1151.11 246.548 1136.15 231.593 1117.71 231.593C1099.25 231.593 1084.29 216.637 1084.29 198.187Z" fill="#EEEEEE"/>
<path d="M416.846 355.737C422.551 348.606 423.62 338.801 419.342 330.6C409.893 312.417 412.568 290.31 425.76 274.622C430.93 268.561 432.534 260.182 430.039 252.693C423.8 233.795 433.961 213.295 452.858 207.054C471.756 200.815 492.256 210.976 498.497 229.873C500.993 237.183 500.993 245.204 498.497 252.514C496.001 260.179 497.785 268.737 503.132 274.977C516.146 290.665 518.642 312.593 509.193 330.598C504.914 338.798 505.984 348.602 511.867 355.734C532.903 381.94 528.624 420.27 502.418 441.307C500.814 442.554 499.031 443.803 497.427 444.872L430.931 444.694C402.764 426.153 394.919 388.359 413.46 360.371C414.528 358.768 415.597 357.342 416.846 355.737Z" fill="#AEDDC2"/>
<path d="M811.42 235.759C811.777 225.419 803.755 216.861 793.415 216.505C793.237 216.505 793.058 216.505 792.88 216.505H711.944C702.674 216.505 694.83 223.279 693.403 232.55L680.21 364.651H811.42V235.759Z" fill="#B18977"/>
<path d="M673.971 262.858L701.96 202.067L746.35 191.014L701.96 263.571L673.971 262.858Z" fill="#102C60"/>
<path d="M756.511 145.016L719.787 144.659C716.756 145.016 713.903 142.697 713.548 139.667H714.261C714.083 138.063 714.439 136.102 714.261 134.675C714.261 132.713 713.014 131.288 713.192 129.326C712.301 129.326 711.408 129.148 710.696 129.148C709.627 128.97 708.912 127.901 709.092 126.83C709.092 126.652 709.27 126.473 709.27 126.295C710.517 123.977 712.479 120.056 713.904 116.846C711.408 113.459 712.12 112.211 713.369 105.259C713.369 104.902 713.547 104.547 713.547 104.19C714.794 97.5944 720.143 92.6034 726.739 92.0674L738.326 90.8204C748.666 89.7514 757.936 97.2384 759.005 107.577C759.362 110.251 759.005 112.747 758.292 115.242L754.904 125.76C753.123 130.577 754.551 140.026 756.511 145.016Z" fill="#5C3C2E"/>
<path d="M720.679 117.386L716.401 117.564L716.579 117.386C717.826 116.317 719.431 116.317 720.679 117.386Z" fill="black"/>
<path d="M722.107 113.998C722.285 114.176 722.107 114.533 721.929 114.533L716.224 115.068C716.046 115.068 715.689 114.89 715.689 114.711C714.798 112.572 719.967 112.749 721.038 113.107C721.395 113.285 721.752 113.464 721.929 113.642C721.928 113.641 721.928 113.82 722.107 113.998Z" fill="black"/>
<path d="M717.291 117.742C717.291 117.742 717.47 117.742 717.291 117.742C717.469 117.385 717.648 117.207 717.826 117.207C718.004 117.207 718.005 117.207 718.184 117.207C718.719 117.207 719.074 117.742 719.074 118.098C719.074 118.098 719.074 118.098 719.074 118.276C719.074 118.454 719.075 118.454 718.897 118.633L717.649 118.811C717.471 118.633 717.293 118.276 717.472 118.099C717.291 117.921 717.291 117.742 717.291 117.742Z" fill="black"/>
<path d="M738.328 90.6446L726.562 91.8916C721.57 92.4266 717.113 95.2786 714.796 99.7356L732.623 97.7736C727.81 102.765 727.631 109.719 727.631 109.719L729.949 111.323C731.733 112.749 732.98 114.71 733.158 116.85L733.336 118.097L742.071 117.206C746.528 120.771 752.232 123.98 753.837 130.041C754.015 128.437 754.372 127.01 754.728 125.584L758.116 115.066C761.325 105.26 755.798 94.5636 745.993 91.3556C743.496 90.6446 741.001 90.2886 738.328 90.6446Z" fill="black"/>
<path d="M756.511 145.016L727.987 152.861L721.569 133.607L756.511 145.016Z" fill="#5C3C2E"/>
<path d="M737.793 121.664H745.994L742.785 128.795C742.25 130.042 741.18 130.579 740.11 130.579C738.863 130.579 738.149 130.044 737.436 129.153L736.723 127.906L737.793 121.664Z" fill="#3D281E"/>
<path d="M736.546 128.081L739.22 127.546C741.894 127.368 744.211 125.762 745.281 123.624L746.172 121.306C747.063 118.988 747.063 116.493 745.637 114.532C744.924 113.106 743.676 112.57 742.072 112.57C740.646 112.57 739.398 113.105 738.684 114.174L736.188 117.917L736.546 128.081Z" fill="#5C3C2E"/>
<path d="M739.221 120.417C739.934 120.595 740.112 121.129 739.934 121.664L738.686 123.982C738.686 124.16 738.864 124.694 739.4 124.517L741.719 123.626C742.432 123.448 742.965 122.914 743.144 122.379L744.571 119.348C744.749 118.636 744.749 117.922 744.571 117.564L743.679 115.96C743.144 115.069 741.895 115.069 741.183 115.782L738.688 118.991C738.151 119.525 738.328 120.417 739.221 120.417Z" fill="#3D281E"/>
<path d="M716.935 128.795L713.192 128.973C713.192 129.864 713.192 131.291 711.945 132.004C711.945 132.004 714.976 132.895 714.263 134.322C713.728 135.213 713.906 136.818 713.906 137.531C713.906 138.243 713.728 138.778 713.549 139.493C713.371 140.028 713.371 140.562 713.549 141.097C713.906 142.701 714.975 143.771 716.402 144.306C719.076 145.018 722.107 144.128 724.96 143.949H725.317L721.217 131.292C720.321 129.865 718.54 128.795 716.935 128.795Z" fill="#5C3C2E"/>
<path d="M749.738 321.687L690.373 321.33L691.977 266.6L683.955 286.388C687.343 263.035 692.335 245.92 696.435 220.783C698.931 205.273 708.915 186.555 712.123 178.532C713.014 176.393 714.084 175.145 715.866 173.362C728.167 160.527 728.523 159.279 727.989 152.86L756.514 145.016C758.413 154.224 761.683 160.883 767.567 167.122L774.877 174.787C782.364 182.631 778.086 191.901 776.838 202.776C772.734 240.751 755.442 288.529 749.738 321.687Z" fill="#174291"/>
<path d="M757.045 198.32L760.433 255.012L765.96 256.081L773.625 223.635L757.045 198.32Z" fill="#102C60"/>
<path d="M697.021 217.676C732.854 192.539 752.548 172.939 765.026 164.202L759.899 155.714L701.95 201.931C699.811 206.744 698.091 212.327 697.021 217.676Z" fill="#102C60"/>
<path d="M759.899 155.714L701.783 202.065C705.171 193.865 707.31 190.299 710.518 181.742C711.232 179.603 714.261 176.037 716.045 173.72C727.276 157.497 728.346 158.566 727.99 152.863L756.515 145.019C757.403 148.762 758.295 152.327 759.899 155.714Z" fill="white"/>
<path d="M683.954 251.27L771.486 244.852L797.514 252.696L790.561 256.975C776.655 265.533 760.612 269.81 744.388 269.455L683.776 268.743L683.954 251.27Z" fill="#5C3C2E"/>
<path d="M790.562 269.274L779.509 267.848L749.56 185.485L775.766 176.036C788.246 187.802 795.02 220.069 802.15 249.306C804.288 258.4 799.831 268.205 790.562 269.274Z" fill="#174291"/>
<path d="M802.328 255.368C802.863 247.168 796.624 240.392 788.424 239.858C787.889 239.858 787.355 239.858 786.82 239.858L774.697 236.649L725.849 245.029L727.633 268.739L744.57 269.096C756.871 269.453 773.985 269.987 788.782 269.096C796.089 268.917 801.97 262.857 802.328 255.368Z" fill="#174291"/>
<path d="M720.679 271.949L718.54 246.991C718.362 245.565 719.431 244.138 721.036 243.96L739.755 241.464C741.359 241.286 742.786 242.355 742.964 243.96V244.138L745.282 271.057C745.46 272.661 744.213 273.91 742.786 274.088H742.608L723.71 274.8C722.105 274.623 720.855 273.554 720.679 271.949Z" fill="#102C60"/>
<path d="M722.639 168.194V164.985L727.988 163.201L726.919 157.852C725.135 160.705 722.462 163.913 714.796 173.362C713.012 175.501 710.696 179.958 708.912 184.058C705.347 191.902 705.159 193.016 701.949 201.929L712.149 193.794L722.639 168.194Z" fill="#AE372A"/>
<path d="M696.433 251.803L679.497 248.594L673.436 247.525C670.762 247.525 668.087 248.416 665.771 249.843L653.114 257.687C652.579 258.044 652.579 258.578 652.757 258.934L652.935 259.112C653.47 260.359 654.896 260.716 656.144 260.359C661.493 258.397 667.91 255.367 671.298 253.941L675.398 267.133L683.599 266.955C686.986 266.955 690.017 265.886 692.869 264.102L701.783 258.041L696.433 251.803Z" fill="#5C3C2E"/>
<path d="M672.723 250.913C668.445 252.339 659.888 256.44 652.578 259.648C650.974 260.36 649.725 261.787 649.369 263.57L673.971 263.035L672.723 250.913Z" fill="#5C3C2E"/>
<path d="M672.188 255.369L657.034 258.578C656.143 258.756 655.608 259.647 655.608 260.717V260.895C655.786 261.607 656.499 261.964 657.212 261.964C659.53 261.964 664.699 261.964 669.869 261.964L672.188 255.369Z" fill="#5C3C2E"/>
<path d="M717.112 139.135L713.724 138.6V137.353L714.437 134.679L712.476 132.183L716.933 132.361C718.18 132.361 719.251 133.43 719.251 134.679V137.353C719.253 138.421 718.182 139.313 717.112 139.135Z" fill="#5C3C2E"/>
<path d="M713.905 137.174C713.727 137.174 713.37 137.352 713.192 137.174C712.657 136.996 712.835 136.105 713.014 135.748C713.192 135.57 713.192 135.213 713.371 135.036C713.549 134.858 713.728 134.501 713.906 134.501H714.084H713.548C713.013 134.501 712.301 133.966 711.944 133.254C711.766 133.076 711.766 132.542 711.766 132.185C711.766 132.185 712.301 132.007 712.48 132.007C712.837 132.007 713.193 132.007 713.371 132.185C714.797 132.72 716.045 133.611 717.471 133.611C717.114 134.146 716.757 134.68 716.58 135.037C716.223 135.572 715.867 135.928 715.333 136.284C714.976 136.64 714.44 136.996 713.905 137.174Z" fill="#3D281E"/>
<path d="M725.135 144.127L736.724 139.848L726.918 149.654L725.135 144.127Z" fill="#3D281E"/>
<path d="M1126.8 261.965H457.007V475.893H1126.8V261.965H1126.8Z" fill="#E2E2E2"/>
<path d="M1178.43 326.729V284.578H827.332C818.879 284.578 810.652 287.959 804.679 293.932L793.635 304.976C787.662 310.949 779.434 314.33 770.982 314.33H457.007V377.781H1178.43V326.729Z" fill="white"/>
<path d="M1134.42 261.431H449.391V270.88H1134.42V261.431Z" fill="#AFAFAF"/>
<path d="M964.725 243.772H830.439C826.679 243.772 823.662 240.755 823.662 236.995V160.726C823.662 156.966 826.679 153.949 830.439 153.949H964.725C968.485 153.949 971.502 156.966 971.502 160.726V236.995C971.501 240.755 968.482 243.772 964.725 243.772Z" fill="white"/>
<path d="M882.175 259.303C881.186 259.797 880.346 260.539 879.703 261.429H925.949C925.305 260.539 924.466 259.798 923.477 259.303C922.488 258.809 921.4 258.511 920.312 258.511C917.543 258.511 914.871 257.423 912.942 255.446C911.013 253.469 909.877 250.846 909.877 248.076V243.772H895.829V248.076C895.829 250.845 894.741 253.517 892.764 255.446C890.835 257.375 888.114 258.511 885.394 258.511C884.251 258.51 883.165 258.759 882.175 259.303Z" fill="white"/>
<path d="M913.439 439.883H896.682C896.682 439.883 888.838 377.665 884.737 326.679L913.974 333.097C917.538 373.565 913.081 406.546 913.439 439.883Z" fill="black"/>
<path d="M951.767 412.964L938.575 422.234C938.575 422.234 894.72 369.82 866.91 326.678L901.851 318.479C923.956 352.707 935.721 383.727 951.767 412.964Z" fill="black"/>
<path d="M888.66 369.108H982.252C984.036 369.108 985.995 368.93 987.957 368.573C1003.82 365.542 1014.34 350.211 1011.13 334.167L1001.33 279.972L874.753 296.908C863.878 298.692 856.034 308.139 856.034 319.014C856.034 323.827 857.638 328.641 860.669 332.563L888.66 369.108Z" fill="#AFAFAF"/>
<path d="M872.793 255.724L868.336 260.894C867.801 261.429 867.089 261.429 866.552 261.072C866.017 260.537 866.017 259.825 866.374 259.288L870.831 254.118C871.366 253.583 872.078 253.583 872.615 253.94C873.149 254.477 873.326 255.19 872.793 255.724Z" fill="#F19164"/>
<path d="M876 255.547L871.722 260.896C871.365 261.431 870.475 261.608 869.938 261.074C869.403 260.717 869.226 259.827 869.76 259.29L874.038 253.941C874.395 253.406 875.285 253.229 875.822 253.763C876.358 254.3 876.358 255.013 876 255.547Z" fill="#F19164"/>
<path d="M873.326 255.546C872.614 255.368 871.722 255.546 871.008 255.903L865.481 260.003C864.946 260.36 864.412 260.36 864.055 260.003C863.52 259.646 863.343 258.756 863.877 258.219L864.055 258.041C867.442 255.188 872.435 250.197 875.821 250.019C879.03 249.662 883.131 251.623 890.439 252.337C894.004 251.98 909.515 250.019 915.398 247.167C920.747 244.849 910.763 260.894 910.763 260.894C910.763 260.894 895.609 260.716 891.687 261.072C889.191 261.25 886.517 264.281 883.307 264.459C880.276 264.637 874.215 262.675 872.254 263.033C869.58 263.39 869.401 262.321 869.58 261.607C869.937 260.716 873.68 259.823 875.819 259.823H875.997C878.136 259.823 878.493 256.792 876.532 256.258L873.326 255.546Z" fill="#F7BFA5"/>
<path d="M942.676 241.82C942.676 241.82 912.904 248.059 894.007 249.13L894.185 261.431L941.962 261.253C946.954 261.431 951.054 259.114 951.232 254.122C951.232 253.231 951.232 252.518 951.054 251.626C949.984 247.702 946.597 241.997 942.676 241.82Z" fill="#1C472F"/>
<path d="M903.454 289.953C901.67 288.884 899.532 288.884 897.749 289.775L895.431 291.022C894.54 291.557 893.292 291.734 892.222 291.734L889.369 291.377C889.012 291.377 888.478 291.555 888.478 292.089V292.267C888.478 293.158 889.013 293.871 889.725 294.051L894.359 295.655L889.902 300.825L885.267 307.421L881.347 314.018C880.99 314.375 881.169 315.087 881.704 315.444C882.061 315.801 882.773 315.622 883.13 315.266L887.587 309.917L889.905 307.599C890.083 307.421 890.44 307.599 890.262 307.777L888.3 311.52L883.308 319.542C882.951 320.077 883.13 320.789 883.665 321.146C884.2 321.503 884.734 321.324 885.091 320.968L890.44 314.015L893.649 309.202C893.827 309.024 894.006 309.024 894.184 309.202C894.362 309.202 894.362 309.38 894.184 309.559L893.115 313.302L890.619 320.076C890.441 320.611 890.619 321.145 891.154 321.502C891.689 321.68 892.223 321.502 892.58 320.967L896.68 314.014L898.106 310.627C898.106 310.449 898.284 310.27 898.463 310.27C898.641 310.27 898.998 310.448 898.998 310.627V312.053C898.998 313.3 898.82 314.371 898.463 315.44L897.216 319.005C897.038 319.362 897.216 319.896 897.751 320.252C898.286 320.609 898.82 320.252 898.998 319.895L900.96 316.152C901.495 314.905 902.029 313.656 902.207 312.409C902.564 310.983 903.098 309.556 903.811 308.309L908.268 300.465L917.182 291.73L908.982 288.521L903.454 289.953Z" fill="#F7BFA5"/>
<path d="M944.102 251.804L904.525 294.59" stroke="#2B6B46" stroke-width="19.7059" stroke-miterlimit="10"/>
<path d="M957.649 150.9V161.775L956.402 159.813C956.045 159.278 955.69 158.922 955.155 158.744C952.659 158.387 953.371 156.605 954.443 155.891C954.443 155.891 952.481 155.356 952.659 154.287C952.837 153.218 954.263 151.969 954.263 150.9H957.649Z" fill="#F7BFA5"/>
<path d="M987.6 162.488C987.957 163.735 988.312 165.162 988.847 166.231H962.285C956.046 166.231 954.975 164.447 955.689 161.239C956.046 159.992 955.867 158.565 955.511 157.317C954.976 154.999 954.085 152.86 954.085 150.543C954.063 150.501 953.561 150.543 953.503 150.543C952.575 150.543 951.721 149.964 951.439 149.059C951.272 148.523 951.293 147.828 951.589 147.333C953.728 143.768 955.867 141.806 955.867 139.311L955.689 134.676C955.689 134.498 955.689 134.498 955.689 134.319C955.689 125.939 962.463 119.343 970.664 119.343H976.903C990.63 119.343 999.009 134.319 991.878 146.084L989.56 149.827C987.242 153.397 986.531 158.032 987.6 162.488Z" fill="#F7BFA5"/>
<path d="M957.114 155.892H954.44C954.44 155.892 952.478 155.357 952.656 154.288C952.739 153.758 953.122 153.219 953.122 153.219C955.264 153.04 955.868 153.932 957.114 155.892Z" fill="#B83E2B"/>
<path d="M957.114 155.892C956.223 156.427 955.33 157.782 953.905 158.317C953.014 157.426 953.37 156.605 954.44 155.892H957.114Z" fill="#F19164"/>
<path d="M971.021 161.24L970.843 166.231H962.285L971.021 161.24Z" fill="#F19164"/>
<path d="M1009.71 181.207L1007.21 190.477C998.118 195.29 993.661 196.182 981.538 196.182C967.455 196.182 958.719 190.833 946.062 183.702C949.984 182.098 951.411 181.563 953.372 180.849C954.441 180.492 955.333 180.137 956.403 179.78C969.952 175.858 971.199 170.331 969.061 160.17L977.083 161.417H989.918C991.522 171.225 990.453 178.89 1009.71 181.207Z" fill="#F7BFA5"/>
<path d="M998.83 177.286H963.354C962.997 177.286 962.285 177.821 962.107 177.998C961.572 178.176 961.038 178.533 960.681 178.71C959.612 179.245 958.363 179.601 957.294 179.957C955.155 180.492 953.016 181.026 951.055 181.741C949.093 182.276 947.133 183.345 945.35 184.415C958.007 191.546 967.634 196.538 981.897 196.538C994.02 196.538 998.477 195.647 1007.57 190.833L1010.07 181.563L1009.17 181.385C1002.4 180.317 1002.04 179.068 998.83 177.286Z" fill="#2B6B46"/>
<path d="M989.916 161.597H977.081L969.059 160.35C970.663 168.372 970.306 173.364 963.354 177.107H998.83C992.414 173.542 990.988 168.015 989.916 161.597Z" fill="#F7BFA5"/>
<path d="M936.97 239.503L950.697 258.757L954.797 195.47L936.614 223.816C933.584 228.629 933.584 234.868 936.97 239.503Z" fill="#2B6B46"/>
<path d="M941.606 292.094L1024.86 263.392L1023.79 240.751C1023.43 232.371 1022.01 223.994 1021.29 215.614C1020.58 205.631 1021.12 194.578 1015.23 185.665C1008.28 175.325 1000.44 184.953 993.483 189.408C989.205 191.192 984.569 191.012 980.291 189.23L959.612 183.169C954.978 181.207 949.628 181.743 945.172 184.06L941.606 292.094Z" fill="#2B6B46"/>
<path d="M933.584 250.378L937.506 194.935C938.041 187.448 944.459 181.921 951.946 182.278C959.433 182.635 964.96 189.231 964.604 196.718C964.604 197.253 964.426 197.965 964.426 198.323L953.551 252.874C952.482 258.401 947.133 261.788 941.785 260.718C936.791 260.005 933.227 255.369 933.584 250.378Z" fill="#2B6B46"/>
<path d="M969.594 115.779H979.399C986.53 115.779 993.305 118.81 997.94 124.159C999.902 126.298 1001.15 129.15 1001.51 132.003C1001.68 133.787 1002.4 135.568 1003.29 137.352C1005.25 140.917 1004.89 145.196 1004.89 148.939C1004.89 153.396 1004.36 155.892 1007.21 161.596C1008.82 164.983 1010.24 167.835 1009.53 171.757C1008.28 177.284 1003.29 181.206 997.584 181.206H987.066C983.501 181.206 980.47 178.71 979.579 175.322C977.795 168.369 973.695 162.665 973.695 155.534C973.695 146.442 974.764 142.163 974.764 133.963L970.129 138.598H963.89L965.137 133.249C963.353 134.675 961.75 136.458 960.68 138.598H953.193L952.836 134.498C952.836 133.963 952.658 133.251 952.658 132.714C952.836 123.268 960.325 115.779 969.594 115.779Z" fill="#66321D"/>
<path d="M962.641 141.63L960.679 140.204C960.322 139.847 959.61 139.847 959.253 140.204C958.718 140.561 958.184 140.739 957.649 140.739H957.471L959.255 141.274L959.077 141.986L959.968 141.629C960.503 141.451 961.215 141.272 961.93 141.629C961.927 141.63 962.641 141.63 962.641 141.63Z" fill="#5C3C2E"/>
<path d="M966.385 117.563C966.385 125.943 966.92 127.547 968.703 133.429C970.307 138.42 969.594 142.699 973.338 142.699L987.421 142.164V153.929C987.421 163.734 976.903 175.5 985.103 180.492C985.638 180.849 986.35 181.027 987.065 181.204L1003.47 182.63C1008.99 183.165 1013.81 178.887 1013.81 173.181C1017.19 169.616 1017.19 163.911 1013.81 160.524L1013.27 159.989L1015.95 153.215C1016.84 150.719 1016.66 148.045 1015.41 145.728L1005.43 127.545C1001.33 120.235 993.84 115.779 985.46 115.779H975.476L966.385 117.563Z" fill="#66321D"/>
<path d="M977.439 138.065C975.3 138.065 973.517 139.669 973.339 141.808L972.627 150.9H975.301C977.619 150.9 979.758 149.296 980.293 146.978L981.362 143.056C981.897 140.917 980.65 138.599 978.509 138.064C978.508 138.065 977.795 138.065 977.439 138.065Z" fill="#F7BFA5"/>
<path d="M1061.94 364.294H933.405L946.597 231.837C947.844 222.567 955.867 215.614 965.138 215.614H1046.26C1046.43 215.614 1046.61 215.614 1046.78 215.614C1057.13 215.971 1065.15 224.528 1064.97 234.868L1061.94 364.294Z" fill="#B18977"/>
<path d="M697.021 258.851H578.56V261.344H697.021V258.851Z" fill="white"/>
<path d="M651.275 215.487L663.596 261.344H578.56L566.855 217.768C566.104 214.974 568.21 212.229 571.101 212.229H647.026C649.018 212.229 650.759 213.565 651.275 215.487Z" fill="white"/>
<path d="M238.936 265.352L199.715 278.188L188.842 257.509L238.936 265.352Z" fill="#BC8B2C"/>
<path d="M270.23 163.938L268.947 174.99L260.699 187.258C258.049 190.466 255.949 193.006 247.767 190.677L246.164 179.646L250.249 168.158L258.445 164.073L270.23 163.938Z" fill="#FFC043"/>
<path d="M297.735 129.951C297.735 129.951 297.439 128.816 298.8 126.24L284.595 125.749L284.997 130.441H297.375C297.364 129.941 297.735 129.951 297.735 129.951Z" fill="#5B91F4"/>
<path d="M285.025 130.344L284.28 135.189C283.192 140.7 281.839 146.1 279.762 151.348C279.475 152.073 278.979 152.77 278.617 153.465C278.247 154.174 277.888 154.89 277.532 155.606C275.891 158.91 274.347 162.327 272.306 165.409C272.306 165.409 271.017 165.54 269.623 164.78L252.035 155.173L230.038 175.765L277.654 188.907C282.26 190.148 282.86 189.53 284.587 187.582C287.513 183.676 290.108 180.107 292.062 175.589C296.014 166.456 297.923 156.028 297.718 146.094C297.718 146.094 297.506 135.786 297.395 130.342L285.025 130.344Z" fill="#B45427"/>
<path d="M267.565 163.655L252.037 155.173L230.04 175.766L258.567 183.64C259.224 176.1 261.707 169.106 267.565 163.655Z" fill="#8E421F"/>
<path d="M270.23 163.938C269.603 163.624 266.018 166.613 265.445 167.055C259.215 171.846 252.993 178.879 249.821 186.137C249.512 186.843 248.311 190.838 249.67 191.238L225.305 184.083L226.636 142.166C226.635 142.166 270.228 163.937 270.23 163.938Z" fill="#FFCF70"/>
<path d="M247.75 190.672C246.777 189.792 245.893 188.836 245.136 187.775C237.064 175.09 241.676 161.251 227.838 150.873C227.295 150.33 226.823 149.651 226.423 148.897L225.306 184.081C225.303 184.082 242.01 188.988 247.75 190.672Z" fill="#FFC043"/>
<path d="M226.456 231.303L243.927 355.737L228.417 436.316L216.294 429.72C210.233 426.511 203.28 425.977 197.04 427.936L191.156 429.898L203.101 353.953L184.382 291.379L178.855 282.465C176.181 278.186 174.22 273.551 172.971 268.738L173.164 248.301L226.456 231.303Z" fill="#545454"/>
<path d="M234.123 243.781L218.792 355.915L203.282 436.494L191.159 429.898C185.098 426.689 178.145 426.155 171.905 428.114L166.021 430.076L177.966 354.131L177.788 291.378V290.131C177.61 285.496 176.362 280.861 174.401 276.582C173.154 273.908 172.262 271.412 171.548 268.56L171.379 249.272L234.123 243.781Z" fill="#757575"/>
<path d="M230.08 273.345L234.123 243.779L171.38 249.271L171.549 268.559C172.262 271.412 173.153 273.908 174.402 276.581C176.121 280.332 177.291 284.358 177.675 288.416C179.788 287.998 181.903 287.475 184.016 286.947C199.829 282.734 213.717 267.928 230.08 273.345Z" fill="#545454"/>
<path d="M244.106 84.7613C244.106 84.7613 245.71 94.2103 232.519 87.7923C219.327 81.3743 231.45 76.7393 231.45 76.7393L241.077 78.1653L244.106 84.7613Z" fill="black"/>
<path d="M239.827 80.4824L244.106 94.5654C244.284 95.6344 244.284 96.7044 243.928 97.4184L243.393 98.6654C243.215 99.0224 243.215 99.7344 243.393 100.091L247.493 107.935C247.671 108.47 247.85 109.182 247.671 109.539C247.493 110.074 246.78 110.786 246.245 110.965L243.392 111.5L244.461 113.996C244.639 114.353 244.639 115.065 244.461 115.6C244.104 116.135 243.392 116.669 242.857 116.669H242.322H242.5C243.391 117.026 243.747 117.916 243.569 118.808C243.569 118.986 243.391 119.165 243.391 119.343L242.5 120.234C242.322 120.412 242.143 120.769 242.322 121.125L242.5 122.372C243.035 124.69 242.322 127.185 240.716 128.611C239.29 130.037 237.151 130.395 235.189 130.037L229.662 128.968C228.771 128.79 228.058 129.146 227.523 130.037L219.143 146.794L195.076 132.888L199.355 125.401C202.029 122.727 203.277 118.983 202.208 115.24L198.643 102.226L239.827 80.4824Z" fill="#B45427"/>
<path d="M239.827 117.029C238.936 116.851 238.223 116.672 237.331 116.494C239.115 116.672 240.718 115.959 240.718 115.959C242.502 115.068 243.749 114.89 244.461 115.068C244.461 115.246 244.461 115.603 244.283 115.959C243.926 116.494 243.214 117.028 242.679 117.028H242.144H242.322C243.213 117.385 243.569 118.275 243.391 119.167C243.391 119.345 243.213 119.345 243.213 119.524C243.035 119.346 243.035 119.346 242.856 119.167C241.789 118.455 240.898 117.386 239.827 117.029Z" fill="#8E421F"/>
<path d="M242.501 98.8449L240.362 97.5979C239.471 97.2409 238.578 97.0629 237.509 97.2409L233.587 98.1319L237.33 95.9929C238.221 95.6359 239.114 95.4579 240.004 95.8149L242.678 96.7059V98.1319C242.501 98.1319 242.501 98.3099 242.501 98.8449Z" fill="black"/>
<path d="M246.246 73.8867C245.889 73.3517 245.177 72.2827 244.82 71.7477C241.789 68.3607 237.155 68.7167 233.054 69.9637C231.807 70.3207 230.201 71.3897 228.775 71.2107C227.528 71.0327 226.636 69.7847 225.744 69.0717C224.853 68.7147 223.96 68.1807 222.891 68.5367C222.356 68.7147 221.465 68.8937 220.752 69.0717C219.148 69.4287 217.721 69.2497 216.295 68.7147C214.511 68.1797 212.552 68.1797 211.125 69.2497C210.234 69.7837 209.521 70.8537 208.629 71.5677C208.451 71.7457 208.094 71.7457 207.738 71.7457C206.312 71.9237 204.885 71.7457 203.459 71.7457C200.428 71.9237 197.932 74.2417 197.041 77.0947L196.506 79.2337C196.149 80.8377 195.08 82.2647 193.653 83.3337C191.335 84.9377 189.91 87.4337 189.91 90.2867C189.91 92.9607 191.157 95.4567 193.297 96.8827C194.901 98.1297 196.15 100.805 195.793 103.122C195.258 106.153 194.546 107.579 196.328 110.609C197.932 113.283 199.893 115.601 202.567 117.027L206.489 113.105C209.342 110.252 210.411 105.974 209.163 102.23L208.985 101.695C218.434 105.795 221.82 98.6637 221.82 98.6637C221.599 99.7687 221.189 100.808 220.667 101.778L225.426 104.175C229.931 102.588 233.08 98.4617 233.765 93.6727L233.943 90.9987C234.121 88.8597 235.012 87.0767 236.439 85.8287L240.182 82.2637C241.429 81.1947 243.213 81.3727 244.104 82.7987C244.461 83.3337 244.995 84.0457 245.173 84.5827C245.351 83.1567 245.351 82.2647 246.42 81.1947C247.137 79.7707 247.494 76.3827 246.246 73.8867Z" fill="black"/>
<path d="M214.691 112.215L214.156 113.284C213.621 114.175 212.73 114.531 211.66 114.531C210.59 114.531 209.521 113.996 209.164 112.927L206.311 106.509H213.798L214.691 112.215Z" fill="#8E421F"/>
<path d="M208.833 99.2721L209.179 98.4521L224.495 104.729L232.815 109.384L208.833 99.2721Z" fill="white"/>
<path d="M224.496 123.52C223.605 122.985 212.373 114.712 209.165 112.216C205.778 109.363 204.531 103.481 206.847 99.7363L207.559 100.093C205.241 104.015 206.847 109.363 209.698 111.502C212.729 113.998 225.386 123.09 225.565 123.09L224.496 123.52Z" fill="white"/>
<path d="M215.226 102.946L212.908 99.5588C212.373 98.4898 211.124 98.1328 209.877 98.1328C208.451 98.1328 207.203 98.6678 206.49 99.9168C205.243 101.701 205.243 104.017 206.133 106.156L207.024 108.295C207.915 110.079 209.877 111.682 212.373 111.86L214.869 112.217L215.226 102.946Z" fill="#B45427"/>
<path d="M213.086 104.015L210.768 101.162C210.233 100.627 208.984 100.627 208.45 101.34L207.559 102.766C207.381 103.123 207.381 103.835 207.559 104.37L208.806 107.044C208.984 107.401 209.341 107.935 210.053 108.113L212.192 109.004C212.549 109.182 212.727 108.826 212.727 108.647L211.658 106.508C211.48 106.151 211.658 105.617 212.193 105.439C213.264 105.441 213.442 104.55 213.086 104.015Z" fill="#8E421F"/>
<path d="M197.22 122.732L224.496 134.498C226.28 135.389 227.527 137.172 227.17 139.311L226.635 142.164L233.767 160.169C237.154 167.834 238.937 176.214 239.116 184.593L238.759 265.529C225.745 263.211 212.375 264.282 200.073 269.094C196.64 270.433 193.207 271.694 189.756 272.84C182.65 275.198 174.885 274.513 168.34 270.876L169.409 198.141L170.3 169.404C170.561 156.388 173.168 144.294 189.408 133.861C190.696 133.033 192.191 132.501 193.653 131.825L194.722 131.29L197.22 122.732Z" fill="#FFCF70"/>
<path d="M217.9 105.44L216.116 107.044L224.851 104.37C225.045 104.312 225.235 104.243 225.426 104.176L220.667 101.779C219.924 103.159 218.947 104.393 217.9 105.44Z" fill="black"/>
<path d="M238.912 100.756C237.836 100.801 236.76 101.091 235.772 101.543L235.549 101.698H236.084C236.975 101.341 237.868 101.52 238.402 101.698L239.471 102.055C239.642 101.884 239.892 101.488 239.513 101.108L241.432 100.628H241.404C241.248 100.642 241.09 100.659 240.934 100.667C240.259 100.699 239.587 100.728 238.912 100.756Z" fill="black"/>
<path d="M239.471 100.093C239.114 99.7359 238.224 99.7359 237.867 100.093L235.773 101.543C236.76 101.092 237.837 100.802 238.913 100.756C239.588 100.728 240.26 100.697 240.934 100.666C241.091 100.658 241.249 100.641 241.404 100.627H241.254C240.72 100.628 240.005 100.45 239.471 100.093Z" fill="#8E421F"/>
<path d="M246.423 105.975C244.997 105.44 243.57 105.263 242.144 105.084C240.182 105.084 237.152 106.51 234.834 107.046C233.23 107.403 231.447 107.403 230.021 106.868L224.494 104.729V123.52L230.021 127.369C231.625 128.616 234.389 129.693 236.35 130.227H236.705C237.653 130.227 238.606 130.082 239.475 129.706C241.133 128.988 241.583 127.977 242.144 126.717L247.135 111.503C247.671 109.719 248.563 109.183 246.423 105.975Z" fill="#A0BFF9"/>
<path d="M283.903 119.844C283.903 119.844 279.098 113.915 274.728 115.288C274.728 115.288 273.961 115.536 273.491 116.072C273.033 116.594 273.153 117.405 273.716 117.813L275.087 118.8C277.526 120.558 279.575 122.803 281.102 125.393L281.116 125.417C281.981 126.884 283.392 127.948 285.04 128.378L287.723 129.077C288.046 129.161 288.379 129.204 288.713 129.204C290.53 129.204 292.12 127.959 292.528 126.188C292.936 124.418 292.966 122.228 291.392 120.653C291.392 120.656 288.482 117.308 283.903 119.844Z" fill="#5B91F4"/>
<path d="M282.989 123.693C282.989 123.693 281.711 102.183 279.258 93.4333C279.258 93.4333 281.221 90.8983 283.511 95.1513C283.511 95.1513 289.759 114.11 289.236 123.203L282.989 123.693Z" fill="#5B91F4"/>
<path d="M286.339 118.381C286.339 118.381 287.519 99.312 286.295 91.348C286.295 91.348 288.295 89.327 289.855 93.315C289.855 93.315 293.324 110.672 291.89 118.619L286.339 118.381Z" fill="#5B91F4"/>
<path d="M289.324 117.837C289.324 117.837 293.351 101.882 293.582 94.9461C293.582 94.9461 295.596 93.5521 296.282 97.1771C296.282 97.1771 296.461 112.421 293.986 118.92L289.324 117.837Z" fill="#5B91F4"/>
<path d="M291.659 120.705C291.659 120.705 297.597 107.193 298.834 101.091C298.834 101.091 300.823 100.158 300.891 103.466C300.891 103.466 298.78 116.976 295.621 122.357L291.659 120.705Z" fill="#5B91F4"/>
<path d="M298.149 109.482C298.149 109.482 299.726 110.271 299.927 120.85C299.968 123.024 299.482 125.199 298.355 127.059C297.811 127.957 297.12 128.776 296.273 129.207C296.273 129.207 288.962 131.342 285.04 128.38L282.413 112.844L298.149 109.482Z" fill="#5B91F4"/>
<path d="M298.346 130.441H285.323" stroke="#5B91F4" stroke-width="1.6626" stroke-miterlimit="10" stroke-linecap="round"/>
<path d="M285.161 214.472L280.419 234.64L289.689 236.654L291.955 225.897L285.161 214.472Z" fill="#B18977"/>
<path d="M260.884 209.471L258.847 218.516L282.899 223.919L284.913 214.649L260.884 209.471Z" fill="#99644C"/>
<path d="M249.849 216.551L247.156 227.236L256.426 229.25L260.882 209.47L249.849 216.551Z" fill="#B18977"/>
<path d="M229.609 222.504L209.984 309.622L288.255 327.306L307.88 240.188L229.609 222.504Z" fill="#B18977"/>
<path d="M265.465 211.105L265.636 220.591L290.323 220.167L290.251 210.453L265.465 211.105Z" fill="#B18977"/>
<path d="M256.428 220.803L256.336 231.82L265.82 231.589L265.482 211.316L256.428 220.803Z" fill="#D2BBB0"/>
<path d="M238.163 231.367L239.655 320.655L319.888 319.362L318.396 230.074L238.163 231.367Z" fill="#D2BBB0"/>
<path d="M285.681 290.229C294.681 286.145 298.9 275.484 294.816 266.487C290.732 257.487 280.071 253.268 271.074 257.352C262.074 261.436 257.855 272.097 261.939 281.094C266.036 290.31 276.682 294.313 285.681 290.229Z" fill="#3AA76D"/>
<path d="M221.428 184.486C221.428 184.486 185.523 206.06 180.257 197.938L177.52 179.818L221.428 184.486Z" fill="#FFC043"/>
<path d="M225.69 192.269C224.063 190.734 222.846 188.817 222.151 186.691L221.429 184.485L215.493 166.315C212.247 156.378 199.084 154.342 192.988 162.836C188.744 168.749 188.385 176.607 192.07 182.882L202.497 200.631C204.313 204.064 210.703 213.463 213.993 215.521L225.69 192.269Z" fill="#B45427"/>
<path d="M191.242 181.277C191.493 181.821 191.762 182.359 192.07 182.882L199.583 195.67C210.34 191.144 221.43 184.484 221.43 184.484L191.242 181.277Z" fill="#8E421F"/>
<path d="M225.69 192.27C225.69 192.27 213.943 215.529 213.991 215.522C228.457 218.003 247.156 210.453 265.685 208.098L271.606 194.936L225.69 192.27Z" fill="#B45427"/>
<path d="M271.609 194.937L260.811 194.309L256.424 209.656L265.688 208.098L271.609 194.937Z" fill="#5B91F4"/>
<path d="M291.328 220.779C288.855 216.761 281.066 202.983 281.066 202.983C280.76 202.448 283.087 200.609 283.087 200.609L285.671 202.437C286.25 202.521 286.747 202.89 286.992 203.421C287.607 204.756 289.21 205.31 290.517 204.639C290.813 204.488 290.949 204.137 290.833 203.827L289.586 200.482C289.365 199.889 288.948 199.388 288.404 199.063L282.5 195.531C281.133 194.714 279.548 194.338 277.961 194.458L271.609 194.932L259.896 208.968C260.148 209.359 260.473 209.903 260.681 210.323L264.596 217.47C265.071 218.338 265.608 219.173 266.2 219.966L266.374 220.199L282.555 214.974C282.555 214.974 285.349 219.057 287.678 222.462C290.009 225.867 293.801 224.797 291.328 220.779Z" fill="#5B91F4"/>
<path d="M290.433 221.098C288.826 218.269 285.757 213.375 283.636 209.945C282.798 208.59 281.061 208.122 279.651 208.862L267.236 215.383C267.223 215.389 267.211 215.397 267.199 215.403C265.53 216.357 265.226 218.664 266.378 220.203L268.344 222.832C269.075 223.811 270.294 224.296 271.498 224.087L273.273 223.78C274.217 224.681 275.491 224.573 276.78 224.369L280.059 223.848L280.669 224.748C281.338 226.432 284.865 226.01 284.308 223.507C283.751 221.004 282.559 214.976 282.559 214.976L287.682 222.462C287.683 222.463 287.683 222.463 287.683 222.463C290.139 226.06 293.157 224.663 290.433 221.098Z" fill="#276EF1"/>
<path d="M279.445 200.538L281.065 202.985C281.182 201.075 283.797 201.519 286.448 202.758L283.609 200.793C282.377 199.941 280.773 199.842 279.445 200.538Z" fill="#276EF1"/>
<path d="M260.81 194.309C260.863 194.037 260.95 193.73 261.179 193.554C261.327 193.441 261.564 193.343 261.757 193.412C261.98 193.493 262.056 193.763 262.242 193.897C262.593 194.148 262.946 193.843 263.312 193.777C263.756 193.695 263.564 194.443 264.383 194.532C263.481 195.663 261.569 195.448 261.072 194.569" fill="#5B91F4"/>
<path d="M256.424 209.656C256.401 209.873 256.328 210.214 256.588 210.302C256.928 210.417 256.998 210.068 257.172 209.907C257.7 209.418 257.751 210.328 258.066 209.817C258.28 209.47 258.369 209.674 258.613 209.588C258.962 209.464 258.751 209.264 259.143 209.198C259.719 209.1 259.318 207.943 258.52 207.843C257.335 207.698 257.027 209.042 256.424 209.656Z" fill="#5B91F4"/>
<path d="M257.355 209.335C259.143 207.194 260.477 205.204 260.86 202.413L261.48 198.947C260.306 201.91 259.131 204.867 258.018 207.852C257.856 208.288 257.705 208.846 257.355 209.335Z" fill="#276EF1"/>
<path d="M258.878 208.902C261.445 207.808 263.538 206.645 265.149 204.333L267.279 201.529C264.885 203.634 262.494 205.731 260.145 207.883C259.802 208.198 259.412 208.627 258.878 208.902Z" fill="#276EF1"/>
<path d="M263.382 195.606C262.603 198.421 262.241 201.268 261.942 204.165C261.897 204.6 261.922 205.234 261.759 205.631C262.366 204.14 262.995 202.557 263.258 200.928C263.542 199.183 262.916 197.291 263.382 195.606Z" fill="#276EF1"/>
<path d="M180.257 197.938L174.388 159.08C173 149.89 178.459 141.044 187.295 138.164C197.463 134.85 208.363 140.57 211.411 150.82L221.427 184.487C203.477 187.778 179.509 192.987 180.257 197.938Z" fill="#FFCF70"/>
<path d="M290.251 210.451L290.405 231.169L299.889 230.938L299.553 219.947L290.251 210.451Z" fill="#D2BBB0"/>
</g>
</g>
<defs>
<clipPath id="clip0">
<rect width="1280" height="398" fill="white"/>
</clipPath>
<clipPath id="clip1">
<rect width="1152" height="270" fill="white" transform="translate(64 64)"/>
</clipPath>
</defs>
</svg>
